<svg height="512" viewBox="0 0 512 512" width="512" xmlns="http://www.w3.org/2000/svg"><g transform="translate(0 215)"><path d="m96.011-182.01h328.13v435.74h-328.13z" fill="#d9e9a9" stroke-linecap="round" stroke-width="2.6458"/><path d="m271.61-66.817-17.43 5.235 6.19 19.931-6.78 15.733 6.36 16.7253-36.42 5.7125-10.82-36.5518-17.92-8.722-5.87-12.268-16.44 8.715.97 11.655-9.19 13.121 15.25 69.524-5.55 14.752 16.64 72.745 3.11 15.78 12.2 14.43 30.03 5.3 23.23-9.15 10.23-21.78 1.31-26.81-10.19-36.782 19.32-3.034 27 69.236 5.81 15.01 14.53 12.09h30.48l21.27-13.06 6.31-23.23-3.38-26.64-29.21-63.763-11.01-8.858-42.5-76.632-19.16-5.933zm-38.62 164.317 19.09 3.27 6.5 11.81-.92 18.55-7.06 15.07-16.09 6.36-20.78-3.67-8.46-10-2.14-10.94 3.53-18.07 8.4-9.06zm129.39.217 8.47 10.503 2.33 18.44-4.35 16.06-14.75 9.06h-21.12l-10.04-8.38-4.02-10.39.33-18.43 6.7-10.38 17.09-6.369z" stroke="#000" stroke-width=".24274"/><g stroke-linecap="round"><path d="m66.191-201.21v484.08h378.199v-484.08zm41.599 41.6h295v400.88h-295z" stroke-width="2.75296"/><path d="m35.937-102.88h121.02v45.384h-121.02z" stroke-width="2.50159"/><path d="m35.937 18.143h121.02v45.385h-121.02z" stroke-width="2.50157"/><path d="m35.937 139.17h121.02v45.385h-121.02z" stroke-width="2.50155"/></g><path d="m277.27-72.493-17.43 5.238 6.19 19.931-6.78 15.734 6.37 16.725-36.42 5.7111-10.83-36.5531-17.92-8.717-5.87-12.273-16.44 8.718.97 11.658-9.19 13.114 15.25 69.531-5.55 14.759 16.64 72.717 3.11 15.79 12.2 14.43 30.03 5.31 23.23-9.16 10.23-21.76 1.32-26.82-10.2-36.778 19.32-3.044 27 69.242 5.81 15.01 14.53 12.09h30.49l21.27-13.06 6.3-23.22-3.37-26.666-29.23-63.756-11-8.85-42.5-76.632-19.16-5.938zm-38.62 164.329 19.09 3.253 6.51 11.811-.92 18.56-7.06 15.06-16.1 6.35-20.78-3.66-8.45-10-2.15-10.93 3.53-18.09 8.4-9.054zm129.38.199 8.48 10.505 2.33 18.44-4.35 16.06-14.76 9.06h-21.11l-10.03-8.36-4.03-10.41.32-18.44 6.7-10.35 17.1-6.382z" fill="#647e64" stroke="#000" stroke-width=".24274"/><path d="m71.866-206.88v484.09h378.194v-484.09zm41.604 41.6h294.99v400.88h-294.99z" fill="#006ba1" stroke-linecap="round" stroke-width="2.75296"/><path d="m41.61-108.55h121.02v45.385h-121.02z" fill="#0065a1" stroke-linecap="round" stroke-width="2.50157"/><path d="m41.61 12.469h121.02v45.385h-121.02z" fill="#0065a1" stroke-linecap="round" stroke-width="2.50155"/><path d="m41.61 133.49h121.02v45.385h-121.02z" fill="#0065a1" stroke-linecap="round" stroke-width="2.50153"/></g></svg>
